HIERARCHY
ROOT Hips
{
 OFFSET 0.000000 0.000000 0.000000
 CHANNELS 6 Xposition Yposition Zposition Yrotation Xrotation Zrotation
 JOINT Chest
 {
  OFFSET 0.000000 9.585900 0.002600
  CHANNELS 3 Yrotation Xrotation Zrotation
  JOINT Chest2
  {
   OFFSET 0.000000 9.601200 -0.005300
   CHANNELS 3 Yrotation Xrotation Zrotation
   JOINT Chest3
   {
    OFFSET 0.000000 9.561800 0.000000
    CHANNELS 3 Yrotation Xrotation Zrotation
    JOINT Chest4
    {
     OFFSET 0.000000 9.552100 0.000000
     CHANNELS 3 Yrotation Xrotation Zrotation
     JOINT Neck
     {
      OFFSET 0.000000 14.453000 0.000000
      CHANNELS 3 Yrotation Xrotation Zrotation
      JOINT Head
      {
       OFFSET 0.000000 8.936500 -0.011300
       CHANNELS 3 Yrotation Xrotation Zrotation
       End Site
       {
        OFFSET 0.000000 17.073600 -0.006000
       }
      }
     }
     JOINT RightCollar
     {
      OFFSET -2.921100 9.558500 0.000000
      CHANNELS 3 Yrotation Xrotation Zrotation
      JOINT RightShoulder
      {
       OFFSET -13.519700 0.000000 0.000000
       CHANNELS 3 Yrotation Xrotation Zrotation
       JOINT RightElbow
       {
        OFFSET 0.000000 -29.696600 0.000000
        CHANNELS 3 Yrotation Xrotation Zrotation
        JOINT RightWrist
        {
         OFFSET 0.000000 -24.004700 0.000000
         CHANNELS 3 Yrotation Xrotation Zrotation
         End Site
         {
          OFFSET 0.000000 -17.728500 0.000000
         }
        }
       }
      }
     }
     JOINT LeftCollar
     {
      OFFSET 2.921100 9.558500 0.000000
      CHANNELS 3 Yrotation Xrotation Zrotation
      JOINT LeftShoulder
      {
       OFFSET 13.519700 0.000000 0.000000
       CHANNELS 3 Yrotation Xrotation Zrotation
       JOINT LeftElbow
       {
        OFFSET 0.000000 -29.696600 0.000000
        CHANNELS 3 Yrotation Xrotation Zrotation
        JOINT LeftWrist
        {
         OFFSET 0.000000 -24.004700 0.000000
         CHANNELS 3 Yrotation Xrotation Zrotation
         End Site
         {
          OFFSET 0.000000 -17.728500 0.000000
         }
        }
       }
      }
     }
    }
   }
  }
 }
 JOINT RightHip
 {
  OFFSET -7.771700 -0.012900 -0.001300
  CHANNELS 3 Yrotation Xrotation Zrotation
  JOINT RightKnee
  {
   OFFSET 0.000000 -40.869800 0.001200
   CHANNELS 3 Yrotation Xrotation Zrotation
   JOINT RightAnkle
   {
    OFFSET 0.000000 -39.717900 0.002100
    CHANNELS 3 Yrotation Xrotation Zrotation
    JOINT RightToe
    {
     OFFSET 0.000000 -4.965400 11.033500
     CHANNELS 3 Yrotation Xrotation Zrotation
     End Site
     {
      OFFSET 0.000000 -1.423100 5.872300
     }
    }
   }
  }
 }
 JOINT LeftHip
 {
  OFFSET 7.771700 -0.012900 -0.001300
  CHANNELS 3 Yrotation Xrotation Zrotation
  JOINT LeftKnee
  {
   OFFSET 0.000000 -40.869800 0.001200
   CHANNELS 3 Yrotation Xrotation Zrotation
   JOINT LeftAnkle
   {
    OFFSET 0.000000 -39.717900 0.002100
    CHANNELS 3 Yrotation Xrotation Zrotation
    JOINT LeftToe
    {
     OFFSET 0.000000 -4.965400 11.033500
     CHANNELS 3 Yrotation Xrotation Zrotation
     End Site
     {
      OFFSET 0.000000 -1.423100 5.872300
     }
    }
   }
  }
 }
}
MOTION
Frames: 8
Frame Time: 0.008333
0.000000 85.388000 0.000000 0.000000 -5.767877 0.000000 0.000000 11.653817 0.000000 0.000000 -5.885947 0.000000 0.000000 -0.000000 0.000000 0.000000 -0.000000 0.000000 0.000000 12.528835 0.000000 0.000000 0.711642 0.000000 0.000000 -0.000000 0.000000 0.000000 0.000000 -90.000000 0.000000 -2.309062 0.000000 0.000000 2.309062 0.000000 0.000000 -0.000000 0.000000 0.000000 -0.000000 90.000000 0.000000 -2.309062 0.000000 0.000000 2.309062 0.000000 0.000000 8.520406 0.000000 0.000000 1.905762 0.000000 -0.000000 -4.658285 0.000000 0.000000 -0.000000 0.000000 0.000000 8.520406 0.000000 0.000000 1.905762 0.000000 -0.000000 -4.658285 0.000000 0.000000 -0.000000 0.000000
-56.370150 61.879869 14.994464 174.902747 -48.738621 -0.873170 4.553419 26.763516 1.123854 0.717578 4.618836 0.068018 1.139659 7.307536 0.132201 3.586721 21.830079 0.871457 0.966227 16.899556 3.149089 0.718256 -4.372513 5.501031 6.136633 6.267211 5.729680 1.721866 -11.968717 -13.041985 -109.491308 -66.457321 138.433694 13.244870 14.236838 -10.271597 -11.724373 3.812100 -1.903942 -5.236468 -12.215234 18.552000 84.066049 -71.516449 -113.420911 11.693609 -0.877345 0.973732 -0.310159 -18.729116 -2.606581 -3.708308 64.003026 -6.864227 1.075064 -6.842430 7.264200 0.030225 -0.168568 0.012221 -3.395651 -16.264697 6.582272 24.996157 75.888034 26.395493 0.905367 -9.968967 -4.966654 0.045123 0.141915 0.026670
-56.374197 61.879216 14.994661 174.905111 -48.741296 -0.871420 4.548717 26.761181 1.117856 0.715499 4.611616 0.065909 1.138545 7.304552 0.131403 3.583933 21.826920 0.868943 0.974574 16.915581 3.152673 0.719775 -4.364289 5.498360 6.150624 6.271725 5.726732 1.706943 -11.968320 -13.025727 -109.449158 -66.468624 138.399902 13.237335 14.244810 -10.275766 -11.716072 3.828757 -1.902958 -5.238945 -12.215301 18.547063 83.990139 -71.524302 -113.345954 11.702525 -0.839488 0.999074 -0.305961 -18.726812 -2.616651 -3.731686 64.001556 -6.882734 1.094853 -6.836954 7.270266 0.025410 -0.169458 0.009038 -3.394326 -16.263630 6.577456 25.004648 75.886783 26.402788 0.900379 -9.967631 -4.965427 0.046322 0.141938 0.027478
-56.377478 61.879027 14.994491 174.915099 -48.747995 -0.882423 4.545267 26.747663 1.115629 0.714707 4.606109 0.065978 1.137123 7.300062 0.132812 3.580681 21.836303 0.871154 0.976246 16.924817 3.152926 0.704508 -4.342981 5.501632 6.160630 6.279394 5.722729 1.699692 -11.964646 -13.012379 -109.410079 -66.485087 138.363082 13.237737 14.244076 -10.273665 -11.715768 3.838815 -1.899864 -5.237042 -12.214053 18.536981 83.923344 -71.535246 -113.273885 11.699288 -0.826910 1.012427 -0.302404 -18.716160 -2.620786 -3.734630 63.997076 -6.874883 1.098325 -6.835490 7.272751 0.022202 -0.164694 0.007759 -3.401348 -16.257290 6.579778 25.012813 75.886118 26.409860 0.897603 -9.970193 -4.966059 0.046297 0.144702 0.027657
-56.381009 61.878379 14.994631 174.917243 -48.751079 -0.887547 4.546963 26.743162 1.116987 0.714534 4.607146 0.067391 1.137053 7.301704 0.134326 3.582346 21.816554 0.869192 0.960765 16.923385 3.148900 0.701956 -4.314361 5.508219 6.157434 6.295468 5.717005 1.698021 -11.959714 -12.999212 -109.409630 -66.499792 138.353566 13.243972 14.258635 -10.267453 -11.726427 3.853978 -1.896734 -5.235573 -12.210835 18.528646 83.869722 -71.551603 -113.210674 11.702304 -0.829003 1.014856 -0.299042 -18.713312 -2.620333 -3.734796 63.996948 -6.872023 1.097759 -6.827045 7.273666 0.022795 -0.166116 0.009519 -3.403705 -16.254283 6.582739 25.022500 75.885121 26.417631 0.893961 -9.973706 -4.967023 0.047221 0.148083 0.029968
-56.384717 61.877619 14.994755 174.920045 -48.752822 -0.892150 4.546770 26.742283 1.118763 0.714834 4.603659 0.066067 1.137595 7.292679 0.131599 3.584407 21.792635 0.864179 0.959769 16.955620 3.159382 0.700204 -4.307627 5.510554 6.157776 6.329319 5.726924 1.693207 -11.965808 -12.991559 -109.373016 -66.537207 138.315768 13.227113 14.232742 -10.268852 -11.731726 3.886695 -1.890521 -5.234946 -12.207989 18.521456 83.815918 -71.572976 -113.150726 11.704526 -0.832167 1.016301 -0.298682 -18.711837 -2.620101 -3.733341 63.997082 -6.869306 1.096103 -6.821225 7.272242 0.024383 -0.165219 0.012400 -3.405416 -16.252647 6.586290 25.001296 75.886370 26.394095 0.894963 -9.976588 -4.966215 0.049113 0.150193 0.029472
-56.388228 61.877419 14.994297 174.922156 -48.758241 -0.896092 4.548323 26.736091 1.120083 0.713593 4.590084 0.064536 1.137769 7.286308 0.131123 3.586499 21.804435 0.868613 0.957491 16.968218 3.159652 0.683170 -4.300501 5.513151 6.159468 6.340161 5.715337 1.686448 -11.966485 -12.971794 -109.343082 -66.557462 138.282034 13.233678 14.233996 -10.266326 -11.736944 3.896786 -1.890034 -5.232018 -12.204172 18.513597 83.770551 -71.588424 -113.100796 11.700371 -0.833262 1.027033 -0.297341 -18.707025 -2.617957 -3.743017 63.997790 -6.881641 1.101466 -6.812163 7.276299 0.021570 -0.168487 0.013405 -3.403543 -16.247570 6.589186 24.987034 75.887774 26.381376 0.889858 -9.979435 -4.966970 0.053268 0.150693 0.031432
-56.391618 61.877096 14.993835 174.917342 -48.761935 -0.893846 4.549727 26.729874 1.119068 0.715671 4.594359 0.066103 1.138212 7.276869 0.131458 3.587342 21.799605 0.869030 0.944600 16.975689 3.157660 0.643305 -4.286326 5.514831 6.159653 6.357164 5.711016 1.681463 -11.977408 -12.967964 -109.291431 -66.571193 138.224339 13.244449 14.235481 -10.262182 -11.744384 3.912371 -1.890029 -5.229283 -12.206368 18.505093 83.722881 -71.599541 -113.047996 11.689990 -0.825913 1.038960 -0.289188 -18.702012 -2.615917 -3.760176 63.994339 -6.901681 1.108458 -6.809326 7.284454 0.017490 -0.164433 0.012428 -3.398850 -16.243080 6.590192 24.982786 75.887711 26.376890 0.886210 -9.982785 -4.965969 0.055849 0.152363 0.031922
